<svg height="297mm" width="210mm" xmlns="http://www.w3.org/2000/svg" xmlns:xlink="http://www.w3.org/1999/xlink"><linearGradient id="a" gradientTransform="matrix(17.052253 0 0 -14.353217 633.83605 1031.9224)" gradientUnits="userSpaceOnUse" x1="32.133057" x2="37.948807" y1="48.969127" y2="48.969127"><stop offset="0" stop-color="#fff"/><stop offset="1" stop-color="#fff" stop-opacity="0"/></linearGradient><linearGradient id="b" gradientTransform="matrix(14.74095 0 0 -16.603731 724.66737 964.95276)" gradientUnits="userSpaceOnUse" x1="35.996582" x2="33.664921" y1="40.458221" y2="37.770721"><stop offset="0" stop-color="#2e3436"/><stop offset="1" stop-color="#babdb6"/></linearGradient><linearGradient id="c" gradientTransform="matrix(18.061451 0 0 -17.374519 609.45182 1005.4709)" gradientUnits="userSpaceOnUse" x1="22.308331" x2="35.785294" y1="18.99214" y2="39.498238"><stop offset="0" stop-color="#eeeeec"/><stop offset=".59928656" stop-color="#eeeeec"/><stop offset=".82758623" stop-color="#fff"/><stop offset="1" stop-color="#d3d7cf"/></linearGradient><g transform="matrix(1.1056529 0 0 1.1056529 -710.03876 -111.7333)"><path d="m583.50946 205.84126h768.77655v768.77655h-768.77655z" fill="none"/><g fill-rule="evenodd"><path d="m790.21697 891.91592h505.27683c5.3434 0 9.6452-4.44504 9.6452-9.96643v-477.13658c0-43.49358-116.431-145.82595-156.8466-145.82595h-358.07543c-5.34344 0-9.64518 4.44502-9.64518 9.96645v612.99608c0 5.52139 4.30174 9.96643 9.64518 9.96643z" fill="url(#c)" stroke="#888a85" stroke-width="17.240259"/><path d="m840.8244 493.22943h371.88727v35.417835h-371.88727z" opacity=".170455"/><path d="m840.8244 561.14105h354.0408v35.417835h-354.0408z" opacity=".170455"/><path d="m841.31122 632.0946h318.34793v35.417835h-318.34793z" opacity=".170455"/><path d="m841.68121 705.73651h371.88727v35.417835h-371.88727z" opacity=".170455"/><path d="m1167.7668 259.23509c29.9303-5.47753 141.348 75.21373 136.8611 141.09593-23.044-40.23246-70.1452-21.36466-130.7122-24.00481 0 0 5.8282-108.78925-6.1489-117.09112z" fill="url(#b)" stroke="#888a85" stroke-width="15.644646"/></g><path d="m1189.1476 295.6222c20.1919 11.35412 65.2766 35.63934 84.4308 66.87102-23.528-11.29145-43.4536-3.47842-84.0579-3.16143 0 0 2.3928-50.84219-.3729-63.70959z" fill="none" opacity=".369318" stroke="url(#a)" stroke-width="15.644638"/><path d="m590.66174 460.58481h513.9577v220.02808h-513.9577z" fill="#4e9a06" stroke="#4e9a06" stroke-linecap="round" stroke-linejoin="round" stroke-width="13.829003"/><path d="m604.9068 669.97261 484.3706.0834-.2829-199.02181-484.28778.20139.20008 198.73701z" fill="#73d216" stroke="#b4ed7d" stroke-linejoin="round" stroke-width="12.100378"/><text font-family="Sans" font-size="185.074615" letter-spacing="0" transform="scale(.93224714 1.0726769)" word-spacing="0" x="660.7464" y="594.78149"><tspan fill="#fff" font-weight="bold" x="660.7464" y="594.78149">JSON</tspan></text></g></svg>